<svg width="139" height="142" viewBox="0 0 139 142" fill="none" xmlns="http://www.w3.org/2000/svg">
<g clip-path="url(#clip0_2_11)">
<g clip-path="url(#clip1_2_11)">
<path d="M62.4568 129.859C64.1623 129.979 65.965 129.461 67.2766 128.474C68.3789 127.647 69.6184 126.355 71.2033 122.562C73.1574 117.903 89.6342 73.0745 91.2911 68.5595L89.7995 67.8838C86.9007 66.5673 82.6694 64.6433 80.3524 63.5955C78.0439 67.8093 55.1211 109.715 52.8968 114.25C51.0905 117.929 50.9319 119.713 51.0306 121.094C51.1448 122.73 51.9422 124.431 53.16 125.632C54.3728 126.833 56.5858 127.842 57.4152 128.22L57.7041 128.352C58.4499 128.689 60.7376 129.732 62.4471 129.857L62.4568 129.859Z" fill="#CC9350"/>
<path d="M79.6453 62.3533C79.8408 62.4432 80.0786 62.5505 80.3529 62.6794C82.5676 63.679 87.0976 65.7362 90.1497 67.125L91.9951 67.9639C92.0609 67.9906 92.1404 68.0247 92.2143 68.0629L92.3076 68.1045C93.0209 68.4266 93.5878 68.5517 94.0521 68.4876C94.625 68.4075 95.0615 68.0163 95.3902 67.294C96.0343 65.8673 96.9114 63.9481 97.2401 63.2258C97.7312 62.1245 98.9324 60.1366 101.432 59.2937C103.607 58.5497 105.904 58.7937 108.448 60.0376C110.896 61.2293 113.096 63.2532 114.192 65.3189C116.004 68.714 115.939 71.7379 115.878 74.6566L115.876 74.8073C115.844 76.4476 116.264 76.5771 116.421 76.6299C116.846 76.7602 117.685 75.7656 118.507 73.273C118.798 72.3979 119.019 71.5157 119.175 70.6272C119.75 67.371 119.441 64.0699 118.252 60.9357C117.198 58.1475 115.9 55.6887 112.99 52.7494C110.482 50.2182 107.676 48.319 103.886 46.6037C102.167 45.8174 97.814 43.8418 94.2854 42.2431C91.9644 41.1895 89.9981 40.2941 89.3643 40.0062C88.1153 39.4386 87.4549 39.8155 86.7469 40.6621L86.7288 40.6791C86.69 40.7276 86.6473 40.7704 86.6076 40.8238L86.4006 41.0843C85.7796 41.8658 85.1379 42.6788 84.3259 43.2303C83.7525 43.6275 82.5175 44.1799 80.7605 43.3818C79.0271 42.5929 78.5181 41.0837 78.2307 39.5733C78.0448 38.6294 77.9791 37.4601 77.9285 36.6055C77.91 36.3103 77.8954 36.051 77.8769 35.8414C77.8074 35.0942 77.6664 33.524 76.1984 32.8574C75.5183 32.5462 74.9196 32.5161 74.4145 32.7543C73.9479 32.974 73.5376 33.4453 73.2379 34.1173C72.9408 34.7747 68.7449 44.0115 68.7449 44.0115C68.7449 44.0115 64.5482 53.2532 64.2519 53.9057C63.6011 55.3413 63.9387 56.3673 65.2574 56.9673C66.7304 57.6347 67.9958 56.7102 68.6079 56.2644C68.7877 56.13 69.0085 55.9626 69.2588 55.7701C69.9583 55.229 70.8269 54.5567 71.6464 54.077C72.9574 53.3216 74.4113 52.7272 76.176 53.4813C77.9504 54.2372 78.3449 55.3688 78.4874 56.1591C78.6389 57.0415 78.4888 57.8355 78.31 58.5641L78.0454 59.5795C77.7251 60.8822 78.0896 61.6411 79.3021 62.1871L79.6608 62.351L79.6453 62.3533Z" fill="#B6B6B6"/>
<path d="M77.5444 58.0818C77.683 57.4669 77.7518 56.9052 77.6449 56.3126C77.5233 55.6317 77.2088 54.8464 75.8321 54.2613C74.3393 53.6206 73.0983 54.2072 72.056 54.8086C71.2873 55.257 70.4417 55.9133 69.7595 56.4423C69.5033 56.6388 69.2808 56.816 69.0913 56.9487C68.4725 57.4033 66.8198 58.6119 64.8997 57.7398C63.5063 57.1065 62.8948 56.0071 63.135 54.645C63.1952 54.3033 63.3095 53.9409 63.4808 53.5684C63.778 52.9111 67.9738 43.6742 67.9738 43.6742C67.9738 43.6742 72.1706 34.4325 72.4668 33.78C72.8604 32.9182 73.3893 32.3168 74.0483 32.0051C74.7842 31.6567 75.6242 31.689 76.538 32.1018C78.4492 32.9674 78.6303 34.9373 78.7089 35.7766C78.7255 35.996 78.7434 36.2659 78.7609 36.566C78.811 37.3953 78.8729 38.5288 79.0479 39.4204C79.2787 40.6238 79.6516 41.9631 81.105 42.6271C82.4846 43.2529 83.4176 42.8436 83.8474 42.5469C84.5569 42.0629 85.159 41.3033 85.7364 40.5695L85.8658 40.4061C85.13 39.6119 84.6719 38.756 84.5066 37.7805C84.0212 34.8811 85.556 31.8295 88.7549 29.2173C85.8836 29.7429 82.6973 30.057 80.6232 28.2315C78.1877 26.0856 78.9534 22.4856 80.5311 18.6765C77.4356 21.3874 74.2043 22.4989 71.9649 21.5252C69.7206 20.5506 68.3326 17.4316 68.2065 13.322C66.4933 17.072 64.3868 20.0832 61.1616 19.7612C58.4111 19.4876 56.4587 16.9436 54.8884 14.4872C55.1684 18.6088 53.9794 21.8119 51.5241 23.4327C48.9434 25.1371 45.5983 23.7822 43.012 22.6063C44.8528 25.5837 45.4864 28.328 44.9541 30.9472L58.0302 36.8923L61.9298 28.3079C62.4632 27.1385 63.8487 26.6177 65.0189 27.1462C66.1599 27.6695 66.7023 29.0185 66.1766 30.2295L56.6914 51.1078C56.4359 51.6718 55.9673 52.1026 55.385 52.3221C54.7978 52.5407 54.1672 52.5201 53.604 52.2598C52.6391 51.8228 52.0922 50.7851 52.2773 49.7355C52.31 49.55 52.368 49.3639 52.4455 49.1813L56.3592 40.5742L43.3301 34.6475C41.7731 36.769 39.3542 38.1546 35.9624 38.8351C38.5789 39.9257 41.8547 41.4446 42.368 44.4999C42.8583 47.4002 41.3187 50.4509 38.1198 53.0631C40.9862 52.5366 44.1774 52.2234 46.2564 54.0498C48.6927 56.1908 47.9213 59.7948 46.3436 63.6039C49.4448 60.889 52.6761 59.7775 54.9155 60.7512C57.155 61.725 58.5478 64.8448 58.6739 68.9543C60.3823 65.2035 62.4888 62.1923 65.7188 62.5152C68.4693 62.7888 70.4169 65.3319 71.9871 67.7883C71.712 63.6676 72.8961 60.4636 75.3554 58.8485C75.9992 58.4234 76.7432 58.1721 77.559 58.0844L77.5444 58.0818Z" fill="#F5FF00"/>
<path d="M57.2861 40.5413L53.201 49.5209C52.8721 50.2733 53.2133 51.164 53.9405 51.4936C54.304 51.6583 54.7089 51.6744 55.086 51.5345C55.463 51.3946 55.7582 51.1194 55.9229 50.7558L65.4064 29.8874C65.7305 29.1341 65.3941 28.2442 64.6638 27.904C63.9131 27.5653 63.0233 27.9017 62.6845 28.6524L58.6118 37.619L57.287 40.5364L57.2861 40.5413Z" fill="#B6B6B6"/>
<path d="M43.363 33.7473L56.6947 39.8129L57.6742 37.655L44.3043 31.5777C38.0653 28.7359 31.8393 25.9065 30.7672 25.4205C28.2369 24.2696 25.7968 23.5776 23.2981 23.3031C23.2786 23.2997 23.264 23.2971 23.2444 23.2937C23.3915 23.4303 23.5434 23.5679 23.6962 23.7005C25.4527 25.2435 27.4498 26.5067 29.7886 27.5735C30.8615 28.0546 37.1151 30.8989 43.3638 33.7424L43.363 33.7473Z" fill="#B6B6B6"/>
<path d="M62.3943 130.699C64.2985 130.833 66.3089 130.251 67.7773 129.146C69.4179 127.92 70.6338 126.106 71.9761 122.89C73.9302 118.231 90.3 73.6953 92.0605 68.9066C92.8737 69.2614 93.5693 69.3992 94.1683 69.3135C95.0358 69.1896 95.7036 68.6278 96.1506 67.6345C96.7939 66.2127 97.6661 64.2926 98.0005 63.5663C98.44 62.5867 99.5005 60.8257 101.7 60.086C103.656 59.414 105.744 59.6463 108.079 60.788C110.341 61.8916 112.447 63.8233 113.453 65.7121C115.163 68.918 115.098 71.8261 115.04 74.6398L115.039 74.7905C115.019 75.8441 115.125 77.0961 116.174 77.4271C117.56 77.8476 118.641 75.5415 119.302 73.5339C120.709 69.2667 120.615 64.8054 119.034 60.6358C118.09 58.1387 116.774 55.3848 113.583 52.1592C110.998 49.549 108.114 47.601 104.232 45.8392C102.513 45.0529 98.1602 43.0773 94.6316 41.4786C92.3106 40.425 90.3443 39.5296 89.7105 39.2417C88.1264 38.5194 87.1444 39.0359 86.4203 39.774C85.8306 39.1214 85.4656 38.4227 85.3311 37.644C84.8252 34.6604 86.7976 31.4394 90.7368 28.7966C90.9025 28.6849 90.9648 28.4744 90.8915 28.2903C90.8134 28.1054 90.6204 28.0009 90.422 28.0414L90.0512 28.117C86.8839 28.7515 83.2985 29.4734 81.1759 27.6091C78.7315 25.4566 80.2052 21.2667 82.1665 17.0521C82.2547 16.8662 82.1932 16.644 82.0223 16.5283C81.8514 16.4126 81.6206 16.4373 81.483 16.5892C78.1972 20.1224 74.5919 21.7568 72.2956 20.763C70.0375 19.7809 68.7468 15.9392 69.0887 11.2024C69.1044 10.9988 68.9669 10.8084 68.7684 10.7634C68.5651 10.7174 68.3653 10.8231 68.286 11.0156C66.5407 15.3186 64.4768 19.2585 61.2468 18.9356C58.432 18.6557 56.5182 15.5498 54.8267 12.8102L54.6196 12.4716C54.5137 12.3019 54.3049 12.2299 54.1168 12.2974C53.9279 12.3698 53.8185 12.5619 53.8492 12.7586C54.6106 17.4332 53.596 21.0749 51.0669 22.743C48.7083 24.3004 45.4802 22.8251 42.8809 21.6369C42.588 21.4997 42.2982 21.3731 42.028 21.2499C41.8551 21.1741 41.6549 21.2244 41.5338 21.3692C41.4884 21.4266 41.4568 21.4915 41.4448 21.5598C41.4259 21.6672 41.4508 21.7824 41.5152 21.8743C43.7828 25.0577 44.6564 27.9249 44.1838 30.6051C38.108 27.8374 32.1659 25.1386 31.1215 24.6675C28.5116 23.4825 25.9853 22.7652 23.3931 22.4793C22.9672 22.4394 22.5568 22.3973 22.1471 22.3804C21.9728 22.3698 21.8137 22.4726 21.7462 22.6268C21.7304 22.6593 21.7195 22.6926 21.7135 22.7267C21.6902 22.8586 21.7313 22.9967 21.825 23.0937C22.248 23.5207 22.6923 23.9413 23.1498 24.3441C24.9726 25.9391 27.0312 27.2534 29.4504 28.3494C30.4949 28.8205 36.4547 31.5325 42.5461 34.2979C40.9058 36.4349 38.24 37.7367 34.3941 38.2515C34.2138 38.2751 34.0682 38.4155 34.0364 38.5962L34.0338 38.6108C34.0108 38.798 34.1102 38.9766 34.2831 39.0524C34.5591 39.1716 34.8506 39.2884 35.151 39.4118C37.7878 40.501 41.0677 41.8545 41.5419 44.6462C42.0469 47.6346 40.0745 50.8557 36.137 53.4887C35.9714 53.6004 35.9042 53.81 35.9823 53.9949C36.0605 54.1799 36.2534 54.2844 36.4519 54.2438L36.8585 54.1645C40.0103 53.5323 43.585 52.8136 45.7028 54.677C48.1431 56.8238 46.6637 61.0177 44.7073 65.2332C44.6191 65.419 44.6806 65.6413 44.8515 65.757C45.0224 65.8727 45.2533 65.848 45.3908 65.696C48.6815 62.1638 52.2877 60.5244 54.5782 61.5223C56.8688 62.5202 58.1302 66.2712 57.79 71.0838C57.7743 71.2874 57.9127 71.4729 58.1152 71.5237C58.3185 71.5696 58.5232 71.4647 58.5975 71.2715C60.338 66.9675 62.3961 63.0317 65.6368 63.3514C68.4467 63.6304 70.3565 66.7307 72.0439 69.4645L72.2639 69.8154C72.3699 69.9851 72.5787 70.0571 72.7668 69.9896C72.9549 69.9221 73.0642 69.73 73.0344 69.5284C72.273 64.8538 73.2868 61.217 75.8167 59.544C76.2727 59.2418 76.7758 59.0436 77.3423 58.9421L77.2307 59.3755C76.8211 61.0701 77.3807 62.2359 78.947 62.945L79.3056 63.1089C79.3941 63.1496 79.4963 63.1979 79.5994 63.2412C77.1408 67.7356 54.3764 109.342 52.157 113.878C51.1683 115.889 50.5861 117.477 50.3348 118.903C50.1962 119.689 50.1575 120.422 50.211 121.146C50.3405 122.981 51.229 124.879 52.588 126.221C53.771 127.391 55.7204 128.354 57.0813 128.972L57.3702 129.103C58.7361 129.721 60.742 130.563 62.4076 130.681L62.3943 130.699ZM57.4192 128.226C56.585 127.847 54.376 126.844 53.164 125.638C51.9422 124.431 51.1489 122.736 51.0346 121.1C50.9359 119.718 51.0896 117.933 52.9008 114.256C55.1251 109.72 78.048 67.8151 80.3564 63.6012C82.6734 64.649 86.9047 66.573 89.8035 67.8895L91.2951 68.5653C89.6383 73.0803 73.1614 117.909 71.2074 122.568C69.6225 126.361 68.3838 127.647 67.2807 128.48C65.969 129.467 64.1663 129.984 62.4609 129.865C60.7562 129.74 58.4628 128.702 57.7179 128.359L57.429 128.228L57.4192 128.226ZM78.025 59.581L78.2896 58.5655C78.4684 57.837 78.6176 57.0478 78.467 56.1605C78.3236 55.3752 77.9301 54.2386 76.1556 53.4828C74.3957 52.7295 72.9379 53.3181 71.626 54.0784C70.8114 54.559 69.9379 55.2305 69.2385 55.7716C68.993 55.9649 68.7722 56.1323 68.5875 56.2659C67.9803 56.7125 66.714 57.6419 65.237 56.9687C63.9183 56.3687 63.5807 55.3428 64.2315 53.9072C64.5278 53.2547 68.7245 44.0129 68.7245 44.0129C68.7245 44.0129 72.9204 34.7761 73.2175 34.1187C73.5221 33.4476 73.9275 32.9755 74.3941 32.7557C74.8992 32.5176 75.4971 32.5525 76.178 32.8588C77.646 33.5254 77.7927 35.0916 77.8566 35.8428C77.875 36.0524 77.8888 36.3166 77.9081 36.6069C77.9587 37.4615 78.0252 38.6259 78.2103 39.5747C78.5025 41.086 79.0125 42.5904 80.7401 43.3833C82.4971 44.1813 83.7272 43.6281 84.3055 43.2317C85.1175 42.6802 85.7592 41.8672 86.3803 41.0857L86.5873 40.8253C86.6269 40.7718 86.6697 40.7291 86.7084 40.6805L86.7265 40.6636C87.4394 39.8178 88.095 39.4401 89.3488 40.0085C89.9826 40.2964 91.9489 41.1918 94.2699 42.2454C97.7976 43.849 102.151 45.8246 103.87 46.606C107.654 48.3253 110.461 50.2196 112.975 52.7517C115.884 55.691 117.182 58.1498 118.236 60.938C119.425 64.0722 119.734 67.3733 119.16 70.6295C119.003 71.518 118.782 72.4002 118.492 73.2753C117.671 75.763 116.836 76.7585 116.405 76.6322C116.247 76.5842 115.828 76.4499 115.861 74.8096L115.862 74.6589C115.925 71.7353 115.984 68.7155 114.176 65.3212C113.081 63.2555 110.876 61.2307 108.433 60.0399C105.889 58.796 103.591 58.552 101.416 59.296C98.9169 60.1389 97.7166 62.1219 97.2245 63.2281C96.8959 63.9504 96.0188 65.8696 95.3746 67.2963C95.0459 68.0186 94.6095 68.4098 94.0366 68.49C93.5772 68.5549 93.0054 68.4289 92.2921 68.1068L92.1987 68.0652C92.1241 68.0319 92.0454 67.9929 91.9796 67.9662L90.1342 67.1273C87.0821 65.7385 82.5521 63.6813 80.3374 62.6817C80.0631 62.5528 79.8253 62.4455 79.6297 62.3556L79.2711 62.1917C78.0586 61.6457 77.6941 60.8868 78.0144 59.5841L78.025 59.581ZM71.9716 67.7906C70.4014 65.3342 68.4586 62.7919 65.7033 62.5175C62.4733 62.1946 60.3619 65.2049 58.6584 68.9566C58.5274 64.8462 57.1395 61.7273 54.9 60.7535C52.6606 59.7798 49.4293 60.8913 46.3281 63.6062C47.9115 59.7931 48.6772 56.1931 46.2409 54.0521C44.1619 52.2257 40.9707 52.5389 38.1043 53.0654C41.3072 50.459 42.8428 47.4025 42.3525 44.5022C41.8392 41.4469 38.5634 39.928 35.9469 38.8374C39.3436 38.1578 41.7567 36.7762 43.3146 34.6498L56.3437 40.5765L52.43 49.1836C52.3525 49.3662 52.2945 49.5523 52.2618 49.7378C52.0767 50.7874 52.6236 51.8251 53.5885 52.2621C54.1525 52.5175 54.7872 52.5439 55.3695 52.3244C55.9567 52.1058 56.4204 51.6741 56.6759 51.1101L66.1611 30.2318C66.6868 29.0208 66.1395 27.6709 65.0034 27.1485C63.8332 26.62 62.4477 27.1408 61.9143 28.3102L58.0147 36.8946L44.9386 30.9495C45.4709 28.3303 44.8422 25.5868 42.9965 22.6086C45.5788 23.7787 48.9279 25.1394 51.5086 23.435C53.9639 21.8143 55.1529 18.6111 54.8729 14.4895C56.4432 16.9459 58.3956 19.4899 61.1461 19.7635C64.3664 20.0847 66.4786 17.0695 68.191 13.3243C68.3171 17.4339 69.7051 20.5529 71.9494 21.5275C74.1937 22.5021 77.425 21.3906 80.5156 18.6788C78.9379 22.4879 78.1722 26.0879 80.6077 28.2338C82.6827 30.0544 85.8681 29.7452 88.7394 29.2196C85.5356 31.8309 84.0008 34.8825 84.4911 37.7828C84.6564 38.7583 85.1145 39.6142 85.8503 40.4084L85.7209 40.5718C85.1386 41.3047 84.5414 42.0652 83.8319 42.5492C83.4021 42.8459 82.4691 43.2552 81.0895 42.6294C79.6361 41.9654 79.2681 40.627 79.0324 39.4227C78.8574 38.5311 78.7906 37.3968 78.7454 36.5683C78.7279 36.2682 78.7149 35.9992 78.6933 35.7789C78.6148 34.9396 78.4385 32.9705 76.5225 32.1041C75.6087 31.6913 74.7696 31.6541 74.0328 32.0074C73.3738 32.3191 72.8409 32.9147 72.4513 33.7823C72.1551 34.4348 67.9583 43.6765 67.9583 43.6765C67.9583 43.6765 63.7625 52.9134 63.4653 53.5707C63.294 53.9432 63.1797 54.3056 63.1195 54.6473C62.8793 56.0094 63.4908 57.1088 64.8842 57.7421C66.8043 58.6142 68.4522 57.4048 69.0758 56.951C69.2613 56.8125 69.4878 56.6411 69.744 56.4446C70.4253 55.9204 71.2709 55.2642 72.0405 54.8109C73.0828 54.2095 74.3238 53.6229 75.8165 54.2636C77.1933 54.8487 77.5078 55.634 77.6294 56.3149C77.7306 56.9116 77.6675 57.4692 77.5289 58.0841C76.7122 58.1767 75.9682 58.428 75.3253 58.8482C72.87 60.469 71.681 63.6722 71.957 67.788L71.9716 67.7906ZM23.2436 23.2986C23.2436 23.2986 23.2777 23.3046 23.2973 23.308C25.7959 23.5825 28.2409 24.2754 30.7664 25.4254C31.8384 25.9114 38.0645 28.7408 44.3034 31.5825L57.6734 37.6599L56.6939 39.8178L43.3621 33.7522C37.1085 30.9079 30.8598 28.0644 29.7869 27.5833C27.4472 26.5214 25.451 25.2532 23.6945 23.7103C23.5417 23.5776 23.3946 23.441 23.2427 23.3034L23.2436 23.2986ZM62.6885 28.6581C63.0322 27.9083 63.9212 27.5768 64.6678 27.9098C65.399 28.2451 65.7354 29.1349 65.4104 29.8931L55.927 50.7616C55.7622 51.1252 55.4621 51.3994 55.09 51.5402C54.713 51.6801 54.3072 51.669 53.9445 51.4993C53.2174 51.1697 52.8761 50.279 53.2051 49.5266L57.2853 40.5462L57.2861 40.5413L58.611 37.6239L62.6837 28.6572L62.6885 28.6581Z" fill="black"/>
</g>
</g>
<defs>
<clipPath id="clip0_2_11">
<rect width="123.346" height="118.215" fill="white" transform="translate(138.419 20.5278) rotate(100)"/>
</clipPath>
<clipPath id="clip1_2_11">
<rect width="119.255" height="105.142" fill="white" transform="translate(128.713 21.3332) rotate(100)"/>
</clipPath>
</defs>
</svg>
